<?xml version="1.0" standalone="yes"?>
<!-- SVG graphic -->
<svg xmlns='http://www.w3.org/2000/svg' xmlns:xlink='http://www.w3.org/1999/xlink'
 version="1.1">
<rect x="0" y="139.424" width="6" height="60.576" stroke="black" stroke-width="1" fill="blue" tooltip="enable"><title>(0,610)</title></rect><rect x="6" y="136.147" width="6" height="63.853" stroke="black" stroke-width="1" fill="blue" tooltip="enable"><title>(0.0396556,643)</title></rect><rect x="12" y="139.325" width="6" height="60.6753" stroke="black" stroke-width="1" fill="blue" tooltip="enable"><title>(0.0793112,611)</title></rect><rect x="18" y="134.26" width="6" height="65.7398" stroke="black" stroke-width="1" fill="blue" tooltip="enable"><title>(0.118967,662)</title></rect><rect x="24" y="134.558" width="6" height="65.4419" stroke="black" stroke-width="1" fill="blue" tooltip="enable"><title>(0.158622,659)</title></rect><rect x="30" y="127.706" width="6" height="72.2939" stroke="black" stroke-width="1" fill="blue" tooltip="enable"><title>(0.198278,728)</title></rect><rect x="36" y="123.833" width="6" height="76.1668" stroke="black" stroke-width="1" fill="blue" tooltip="enable"><title>(0.237934,767)</title></rect><rect x="42" y="118.073" width="6" height="81.9265" stroke="black" stroke-width="1" fill="blue" tooltip="enable"><title>(0.277589,825)</title></rect><rect x="48" y="113.307" width="6" height="86.6931" stroke="black" stroke-width="1" fill="blue" tooltip="enable"><title>(0.317245,873)</title></rect><rect x="54" y="104.866" width="6" height="95.1341" stroke="black" stroke-width="1" fill="blue" tooltip="enable"><title>(0.3569,958)</title></rect><rect x="60" y="98.1132" width="6" height="101.887" stroke="black" stroke-width="1" fill="blue" tooltip="enable"><title>(0.396556,1026)</title></rect><rect x="66" y="70.2085" width="6" height="129.791" stroke="black" stroke-width="1" fill="blue" tooltip="enable"><title>(0.436211,1307)</title></rect><rect x="72" y="0" width="6" height="200" stroke="black" stroke-width="1" fill="blue" tooltip="enable"><title>(0.475867,2014)</title></rect><rect x="78" y="61.6683" width="6" height="138.332" stroke="black" stroke-width="1" fill="blue" tooltip="enable"><title>(0.515523,1393)</title></rect><rect x="84" y="88.7786" width="6" height="111.221" stroke="black" stroke-width="1" fill="blue" tooltip="enable"><title>(0.555178,1120)</title></rect><rect x="90" y="108.739" width="6" height="91.2612" stroke="black" stroke-width="1" fill="blue" tooltip="enable"><title>(0.594834,919)</title></rect><rect x="96" y="117.08" width="6" height="82.9196" stroke="black" stroke-width="1" fill="blue" tooltip="enable"><title>(0.634489,835)</title></rect><rect x="102" y="123.932" width="6" height="76.0675" stroke="black" stroke-width="1" fill="blue" tooltip="enable"><title>(0.674145,766)</title></rect><rect x="108" y="129.196" width="6" height="70.8044" stroke="black" stroke-width="1" fill="blue" tooltip="enable"><title>(0.713801,713)</title></rect><rect x="114" y="137.934" width="6" height="62.0655" stroke="black" stroke-width="1" fill="blue" tooltip="enable"><title>(0.753456,625)</title></rect><rect x="120" y="144.886" width="6" height="55.1142" stroke="black" stroke-width="1" fill="blue" tooltip="enable"><title>(0.793112,555)</title></rect><rect x="126" y="151.837" width="6" height="48.1629" stroke="black" stroke-width="1" fill="blue" tooltip="enable"><title>(0.832767,485)</title></rect><rect x="132" y="151.241" width="6" height="48.7587" stroke="black" stroke-width="1" fill="blue" tooltip="enable"><title>(0.872423,491)</title></rect><rect x="138" y="159.682" width="6" height="40.3178" stroke="black" stroke-width="1" fill="blue" tooltip="enable"><title>(0.912079,406)</title></rect><rect x="144" y="164.35" width="6" height="35.6504" stroke="black" stroke-width="1" fill="blue" tooltip="enable"><title>(0.951734,359)</title></rect><rect x="150" y="164.449" width="6" height="35.5511" stroke="black" stroke-width="1" fill="blue" tooltip="enable"><title>(0.99139,358)</title></rect><rect x="156" y="166.931" width="6" height="33.0685" stroke="black" stroke-width="1" fill="blue" tooltip="enable"><title>(1.03105,333)</title></rect><rect x="162" y="170.506" width="6" height="29.4935" stroke="black" stroke-width="1" fill="blue" tooltip="enable"><title>(1.0707,297)</title></rect><rect x="168" y="174.181" width="6" height="25.8193" stroke="black" stroke-width="1" fill="blue" tooltip="enable"><title>(1.11036,260)</title></rect><rect x="174" y="175.869" width="6" height="24.1311" stroke="black" stroke-width="1" fill="blue" tooltip="enable"><title>(1.15001,243)</title></rect><rect x="180" y="179.444" width="6" height="20.5561" stroke="black" stroke-width="1" fill="blue" tooltip="enable"><title>(1.18967,207)</title></rect><rect x="186" y="181.728" width="6" height="18.2721" stroke="black" stroke-width="1" fill="blue" tooltip="enable"><title>(1.22932,184)</title></rect><rect x="192" y="182.324" width="6" height="17.6763" stroke="black" stroke-width="1" fill="blue" tooltip="enable"><title>(1.26898,178)</title></rect><rect x="198" y="182.92" width="6" height="17.0804" stroke="black" stroke-width="1" fill="blue" tooltip="enable"><title>(1.30863,172)</title></rect><rect x="204" y="183.217" width="6" height="16.7825" stroke="black" stroke-width="1" fill="blue" tooltip="enable"><title>(1.34829,169)</title></rect><rect x="210" y="186.991" width="6" height="13.0089" stroke="black" stroke-width="1" fill="blue" tooltip="enable"><title>(1.38795,131)</title></rect><rect x="216" y="186.395" width="6" height="13.6048" stroke="black" stroke-width="1" fill="blue" tooltip="enable"><title>(1.4276,137)</title></rect><rect x="222" y="187.984" width="6" height="12.0159" stroke="black" stroke-width="1" fill="blue" tooltip="enable"><title>(1.46726,121)</title></rect><rect x="228" y="188.977" width="6" height="11.0228" stroke="black" stroke-width="1" fill="blue" tooltip="enable"><title>(1.50691,111)</title></rect><rect x="234" y="189.573" width="6" height="10.427" stroke="black" stroke-width="1" fill="blue" tooltip="enable"><title>(1.54657,105)</title></rect><rect x="240" y="190.765" width="6" height="9.23535" stroke="black" stroke-width="1" fill="blue" tooltip="enable"><title>(1.58622,93)</title></rect><rect x="246" y="191.063" width="6" height="8.93744" stroke="black" stroke-width="1" fill="blue" tooltip="enable"><title>(1.62588,90)</title></rect><rect x="252" y="192.552" width="6" height="7.44786" stroke="black" stroke-width="1" fill="blue" tooltip="enable"><title>(1.66553,75)</title></rect><rect x="258" y="191.956" width="6" height="8.04369" stroke="black" stroke-width="1" fill="blue" tooltip="enable"><title>(1.70519,81)</title></rect><rect x="264" y="193.049" width="6" height="6.95134" stroke="black" stroke-width="1" fill="blue" tooltip="enable"><title>(1.74485,70)</title></rect><rect x="270" y="193.446" width="6" height="6.55412" stroke="black" stroke-width="1" fill="blue" tooltip="enable"><title>(1.7845,66)</title></rect><rect x="276" y="194.638" width="6" height="5.36246" stroke="black" stroke-width="1" fill="blue" tooltip="enable"><title>(1.82416,54)</title></rect><rect x="282" y="193.545" width="6" height="6.45482" stroke="black" stroke-width="1" fill="blue" tooltip="enable"><title>(1.86381,65)</title></rect><rect x="288" y="193.644" width="6" height="6.35551" stroke="black" stroke-width="1" fill="blue" tooltip="enable"><title>(1.90347,64)</title></rect><rect x="294" y="194.737" width="6" height="5.26316" stroke="black" stroke-width="1" fill="blue" tooltip="enable"><title>(1.94312,53)</title></rect><rect x="300" y="195.134" width="6" height="4.86594" stroke="black" stroke-width="1" fill="blue" tooltip="enable"><title>(1.98278,49)</title></rect><rect x="306" y="194.141" width="6" height="5.85899" stroke="black" stroke-width="1" fill="blue" tooltip="enable"><title>(2.02243,59)</title></rect><rect x="312" y="196.425" width="6" height="3.57498" stroke="black" stroke-width="1" fill="blue" tooltip="enable"><title>(2.06209,36)</title></rect><rect x="318" y="196.028" width="6" height="3.97219" stroke="black" stroke-width="1" fill="blue" tooltip="enable"><title>(2.10175,40)</title></rect><rect x="324" y="195.631" width="6" height="4.36941" stroke="black" stroke-width="1" fill="blue" tooltip="enable"><title>(2.1414,44)</title></rect><rect x="330" y="196.028" width="6" height="3.97219" stroke="black" stroke-width="1" fill="blue" tooltip="enable"><title>(2.18106,40)</title></rect><rect x="336" y="197.12" width="6" height="2.87984" stroke="black" stroke-width="1" fill="blue" tooltip="enable"><title>(2.22071,29)</title></rect><rect x="342" y="196.723" width="6" height="3.27706" stroke="black" stroke-width="1" fill="blue" tooltip="enable"><title>(2.26037,33)</title></rect><rect x="348" y="196.624" width="6" height="3.37637" stroke="black" stroke-width="1" fill="blue" tooltip="enable"><title>(2.30002,34)</title></rect><rect x="354" y="196.624" width="6" height="3.37637" stroke="black" stroke-width="1" fill="blue" tooltip="enable"><title>(2.33968,34)</title></rect><rect x="360" y="197.021" width="6" height="2.97915" stroke="black" stroke-width="1" fill="blue" tooltip="enable"><title>(2.37934,30)</title></rect><rect x="366" y="197.418" width="6" height="2.58193" stroke="black" stroke-width="1" fill="blue" tooltip="enable"><title>(2.41899,26)</title></rect><rect x="372" y="198.113" width="6" height="1.88679" stroke="black" stroke-width="1" fill="blue" tooltip="enable"><title>(2.45865,19)</title></rect><rect x="378" y="198.014" width="6" height="1.9861" stroke="black" stroke-width="1" fill="blue" tooltip="enable"><title>(2.4983,20)</title></rect><rect x="384" y="197.716" width="6" height="2.28401" stroke="black" stroke-width="1" fill="blue" tooltip="enable"><title>(2.53796,23)</title></rect><rect x="390" y="197.12" width="6" height="2.87984" stroke="black" stroke-width="1" fill="blue" tooltip="enable"><title>(2.57761,29)</title></rect><rect x="396" y="197.915" width="6" height="2.0854" stroke="black" stroke-width="1" fill="blue" tooltip="enable"><title>(2.61727,21)</title></rect><rect x="402" y="198.51" width="6" height="1.48957" stroke="black" stroke-width="1" fill="blue" tooltip="enable"><title>(2.65692,15)</title></rect><rect x="408" y="198.312" width="6" height="1.68818" stroke="black" stroke-width="1" fill="blue" tooltip="enable"><title>(2.69658,17)</title></rect><rect x="414" y="197.915" width="6" height="2.0854" stroke="black" stroke-width="1" fill="blue" tooltip="enable"><title>(2.73624,21)</title></rect><rect x="420" y="199.106" width="6" height="0.893744" stroke="black" stroke-width="1" fill="blue" tooltip="enable"><title>(2.77589,9)</title></rect><rect x="426" y="198.51" width="6" height="1.48957" stroke="black" stroke-width="1" fill="blue" tooltip="enable"><title>(2.81555,15)</title></rect><rect x="432" y="198.411" width="6" height="1.58888" stroke="black" stroke-width="1" fill="blue" tooltip="enable"><title>(2.8552,16)</title></rect><rect x="438" y="198.411" width="6" height="1.58888" stroke="black" stroke-width="1" fill="blue" tooltip="enable"><title>(2.89486,16)</title></rect><rect x="444" y="199.206" width="6" height="0.794439" stroke="black" stroke-width="1" fill="blue" tooltip="enable"><title>(2.93451,8)</title></rect><rect x="450" y="198.61" width="6" height="1.39027" stroke="black" stroke-width="1" fill="blue" tooltip="enable"><title>(2.97417,14)</title></rect><rect x="456" y="198.312" width="6" height="1.68818" stroke="black" stroke-width="1" fill="blue" tooltip="enable"><title>(3.01382,17)</title></rect><rect x="462" y="198.908" width="6" height="1.09235" stroke="black" stroke-width="1" fill="blue" tooltip="enable"><title>(3.05348,11)</title></rect><rect x="468" y="199.007" width="6" height="0.993049" stroke="black" stroke-width="1" fill="blue" tooltip="enable"><title>(3.09314,10)</title></rect><rect x="474" y="199.106" width="6" height="0.893744" stroke="black" stroke-width="1" fill="blue" tooltip="enable"><title>(3.13279,9)</title></rect><rect x="480" y="198.808" width="6" height="1.19166" stroke="black" stroke-width="1" fill="blue" tooltip="enable"><title>(3.17245,12)</title></rect><rect x="486" y="199.404" width="6" height="0.595829" stroke="black" stroke-width="1" fill="blue" tooltip="enable"><title>(3.2121,6)</title></rect><rect x="492" y="198.908" width="6" height="1.09235" stroke="black" stroke-width="1" fill="blue" tooltip="enable"><title>(3.25176,11)</title></rect><rect x="498" y="199.305" width="6" height="0.695134" stroke="black" stroke-width="1" fill="blue" tooltip="enable"><title>(3.29141,7)</title></rect><rect x="504" y="199.206" width="6" height="0.794439" stroke="black" stroke-width="1" fill="blue" tooltip="enable"><title>(3.33107,8)</title></rect><rect x="510" y="199.305" width="6" height="0.695134" stroke="black" stroke-width="1" fill="blue" tooltip="enable"><title>(3.37073,7)</title></rect><rect x="516" y="199.503" width="6" height="0.496524" stroke="black" stroke-width="1" fill="blue" tooltip="enable"><title>(3.41038,5)</title></rect><rect x="522" y="199.404" width="6" height="0.595829" stroke="black" stroke-width="1" fill="blue" tooltip="enable"><title>(3.45004,6)</title></rect><rect x="528" y="199.503" width="6" height="0.496524" stroke="black" stroke-width="1" fill="blue" tooltip="enable"><title>(3.48969,5)</title></rect><rect x="534" y="199.404" width="6" height="0.595829" stroke="black" stroke-width="1" fill="blue" tooltip="enable"><title>(3.52935,6)</title></rect><rect x="540" y="199.901" width="6" height="0.0993049" stroke="black" stroke-width="1" fill="blue" tooltip="enable"><title>(3.569,1)</title></rect><rect x="546" y="199.603" width="6" height="0.397219" stroke="black" stroke-width="1" fill="blue" tooltip="enable"><title>(3.60866,4)</title></rect><rect x="552" y="199.702" width="6" height="0.297915" stroke="black" stroke-width="1" fill="blue" tooltip="enable"><title>(3.64831,3)</title></rect><rect x="558" y="199.206" width="6" height="0.794439" stroke="black" stroke-width="1" fill="blue" tooltip="enable"><title>(3.68797,8)</title></rect><rect x="564" y="199.503" width="6" height="0.496524" stroke="black" stroke-width="1" fill="blue" tooltip="enable"><title>(3.72763,5)</title></rect><rect x="570" y="199.801" width="6" height="0.19861" stroke="black" stroke-width="1" fill="blue" tooltip="enable"><title>(3.76728,2)</title></rect><rect x="576" y="199.801" width="6" height="0.19861" stroke="black" stroke-width="1" fill="blue" tooltip="enable"><title>(3.80694,2)</title></rect><rect x="582" y="199.503" width="6" height="0.496524" stroke="black" stroke-width="1" fill="blue" tooltip="enable"><title>(3.84659,5)</title></rect><rect x="588" y="199.901" width="6" height="0.0993049" stroke="black" stroke-width="1" fill="blue" tooltip="enable"><title>(3.88625,1)</title></rect><rect x="594" y="200" width="6" height="0" stroke="black" stroke-width="1" fill="blue" tooltip="enable"><title>(3.9259,0)</title></rect><text x="30" y="240" font-size="20" fill="black">0</text>
<text x="600" y="240" font-size="20" fill="black">3.96556</text>
<polyline points="0,220,600,220" stroke="black" stroke-width="1" fill="none"/>
<text x="720" y="20" font-size="20" fill="black">2014</text>
<text x="720" y="200" font-size="20" fill="black">0</text>
<polyline points="660,0,660,200" stroke="black" stroke-width="1" fill="none"/>
</svg>