<?xml version="1.0" standalone="yes"?>
<!-- SVG graphic -->
<svg xmlns='http://www.w3.org/2000/svg' xmlns:xlink='http://www.w3.org/1999/xlink'
width="70px" height="70px" preserveAspectRatio="xMinYMin meet" viewBox="0 0 70 70" version="1.1">
<rect x="5" y="0" width="2.5" height="2.5" fill="rgb(211,0,43)" tooltip="enable"><title>(1,0 998)</title></rect><rect x="10" y="0" width="2.5" height="2.5" fill="rgb(121,0,133)" tooltip="enable"><title>(2,0 572)</title></rect><rect x="15" y="0" width="2.5" height="2.5" fill="rgb(55,0,199)" tooltip="enable"><title>(3,0 264)</title></rect><rect x="20" y="0" width="2.5" height="2.5" fill="rgb(59,0,195)" tooltip="enable"><title>(4,0 282)</title></rect><rect x="25" y="0" width="2.5" height="2.5" fill="rgb(67,0,187)" tooltip="enable"><title>(5,0 320)</title></rect><rect x="35" y="0" width="2.5" height="2.5" fill="rgb(45,0,209)" tooltip="enable"><title>(7,0 213)</title></rect><rect x="40" y="0" width="2.5" height="2.5" fill="rgb(34,0,220)" tooltip="enable"><title>(8,0 162)</title></rect><rect x="45" y="0" width="2.5" height="2.5" fill="rgb(33,0,221)" tooltip="enable"><title>(9,0 157)</title></rect><rect x="50" y="0" width="2.5" height="2.5" fill="rgb(35,0,219)" tooltip="enable"><title>(10,0 166)</title></rect><rect x="10" y="5" width="2.5" height="2.5" fill="rgb(205,0,49)" tooltip="enable"><title>(2,1 973)</title></rect><rect x="15" y="5" width="2.5" height="2.5" fill="rgb(113,0,141)" tooltip="enable"><title>(3,1 536)</title></rect><rect x="20" y="5" width="2.5" height="2.5" fill="rgb(95,0,159)" tooltip="enable"><title>(4,1 450)</title></rect><rect x="25" y="5" width="2.5" height="2.5" fill="rgb(58,0,196)" tooltip="enable"><title>(5,1 275)</title></rect><rect x="30" y="5" width="2.5" height="2.5" fill="rgb(62,0,192)" tooltip="enable"><title>(6,1 297)</title></rect><rect x="35" y="5" width="2.5" height="2.5" fill="rgb(49,0,205)" tooltip="enable"><title>(7,1 232)</title></rect><rect x="45" y="5" width="2.5" height="2.5" fill="rgb(44,0,210)" tooltip="enable"><title>(9,1 211)</title></rect><rect x="50" y="5" width="2.5" height="2.5" fill="rgb(34,0,220)" tooltip="enable"><title>(10,1 161)</title></rect><rect x="15" y="10" width="2.5" height="2.5" fill="rgb(188,0,66)" tooltip="enable"><title>(3,2 890)</title></rect><rect x="20" y="10" width="2.5" height="2.5" fill="rgb(109,0,145)" tooltip="enable"><title>(4,2 516)</title></rect><rect x="25" y="10" width="2.5" height="2.5" fill="rgb(70,0,184)" tooltip="enable"><title>(5,2 332)</title></rect><rect x="30" y="10" width="2.5" height="2.5" fill="rgb(71,0,183)" tooltip="enable"><title>(6,2 340)</title></rect><rect x="35" y="10" width="2.5" height="2.5" fill="rgb(65,0,189)" tooltip="enable"><title>(7,2 310)</title></rect><rect x="40" y="10" width="2.5" height="2.5" fill="rgb(56,0,198)" tooltip="enable"><title>(8,2 265)</title></rect><rect x="45" y="10" width="2.5" height="2.5" fill="rgb(42,0,212)" tooltip="enable"><title>(9,2 202)</title></rect><rect x="50" y="10" width="2.5" height="2.5" fill="rgb(37,0,217)" tooltip="enable"><title>(10,2 178)</title></rect><rect x="20" y="15" width="2.5" height="2.5" fill="rgb(219,0,35)" tooltip="enable"><title>(4,3 1039)</title></rect><rect x="25" y="15" width="2.5" height="2.5" fill="rgb(111,0,143)" tooltip="enable"><title>(5,3 528)</title></rect><rect x="30" y="15" width="2.5" height="2.5" fill="rgb(63,0,191)" tooltip="enable"><title>(6,3 302)</title></rect><rect x="35" y="15" width="2.5" height="2.5" fill="rgb(77,0,177)" tooltip="enable"><title>(7,3 364)</title></rect><rect x="45" y="15" width="2.5" height="2.5" fill="rgb(59,0,195)" tooltip="enable"><title>(9,3 283)</title></rect><rect x="50" y="15" width="2.5" height="2.5" fill="rgb(40,0,214)" tooltip="enable"><title>(10,3 190)</title></rect><rect x="25" y="20" width="2.5" height="2.5" fill="rgb(230,0,24)" tooltip="enable"><title>(5,4 1089)</title></rect><rect x="30" y="20" width="2.5" height="2.5" fill="rgb(105,0,149)" tooltip="enable"><title>(6,4 498)</title></rect><rect x="35" y="20" width="2.5" height="2.5" fill="rgb(71,0,183)" tooltip="enable"><title>(7,4 336)</title></rect><rect x="40" y="20" width="2.5" height="2.5" fill="rgb(72,0,182)" tooltip="enable"><title>(8,4 344)</title></rect><rect x="45" y="20" width="2.5" height="2.5" fill="rgb(68,0,186)" tooltip="enable"><title>(9,4 325)</title></rect><rect x="50" y="20" width="2.5" height="2.5" fill="rgb(42,0,212)" tooltip="enable"><title>(10,4 201)</title></rect><rect x="30" y="25" width="2.5" height="2.5" fill="rgb(244,0,10)" tooltip="enable"><title>(6,5 1155)</title></rect><rect x="35" y="25" width="2.5" height="2.5" fill="rgb(113,0,141)" tooltip="enable"><title>(7,5 534)</title></rect><rect x="40" y="25" width="2.5" height="2.5" fill="rgb(96,0,158)" tooltip="enable"><title>(8,5 458)</title></rect><rect x="45" y="25" width="2.5" height="2.5" fill="rgb(84,0,170)" tooltip="enable"><title>(9,5 401)</title></rect><rect x="50" y="25" width="2.5" height="2.5" fill="rgb(53,0,201)" tooltip="enable"><title>(10,5 253)</title></rect><rect x="35" y="30" width="2.5" height="2.5" fill="rgb(240,0,14)" tooltip="enable"><title>(7,6 1136)</title></rect><rect x="40" y="30" width="2.5" height="2.5" fill="rgb(112,0,142)" tooltip="enable"><title>(8,6 533)</title></rect><rect x="45" y="30" width="2.5" height="2.5" fill="rgb(80,0,174)" tooltip="enable"><title>(9,6 379)</title></rect><rect x="50" y="30" width="2.5" height="2.5" fill="rgb(79,0,175)" tooltip="enable"><title>(10,6 378)</title></rect><rect x="40" y="35" width="2.5" height="2.5" fill="rgb(222,0,32)" tooltip="enable"><title>(8,7 1051)</title></rect><rect x="45" y="35" width="2.5" height="2.5" fill="rgb(143,0,111)" tooltip="enable"><title>(9,7 680)</title></rect><rect x="50" y="35" width="2.5" height="2.5" fill="rgb(86,0,168)" tooltip="enable"><title>(10,7 410)</title></rect><rect x="45" y="40" width="2.5" height="2.5" fill="rgb(255,0,0)" tooltip="enable"><title>(9,8 1205)</title></rect><rect x="50" y="40" width="2.5" height="2.5" fill="rgb(134,0,120)" tooltip="enable"><title>(10,8 637)</title></rect><rect x="50" y="45" width="2.5" height="2.5" fill="rgb(235,0,19)" tooltip="enable"><title>(10,9 1115)</title></rect><text x="60" y="5" font-size="5" fill="black">0</text>
<text x="60" y="50" font-size="5" fill="black">11</text>
<polyline points="60,10,60,45" stroke="black" stroke-width="1" fill="none"/>
<text x="5" y="60" font-size="5" fill="black">0</text>
<text x="50" y="60" font-size="5" fill="black">11</text>
<polyline points="10,60,45,60" stroke="black" stroke-width="1" fill="none"/>
</svg>