<?xml version="1.0" encoding="UTF-8" standalone="no"?>
<!DOCTYPE svg PUBLIC "-//W3C//DTD SVG 1.1//EN"
 "http://www.w3.org/Graphics/SVG/1.1/DTD/svg11.dtd">
<!-- Generated by graphviz version 2.40.1 (20161225.0304)
 -->
<!-- Title: 1 Pages: 1 -->
<svg width="234pt" height="266pt"
 viewBox="0.00 0.00 233.62 266.03" xmlns="http://www.w3.org/2000/svg" xmlns:xlink="http://www.w3.org/1999/xlink">
<g id="graph0" class="graph" transform="scale(1 1) rotate(0) translate(4 262.0342)">
<title>1</title>
<polygon fill="#ffffff" stroke="transparent" points="-4,4 -4,-262.0342 229.6151,-262.0342 229.6151,4 -4,4"/>
<!-- n9 -->
<g id="node1" class="node">
<title>n9</title>
<ellipse fill="none" stroke="#000000" cx="19.4983" cy="-163.5111" rx="19.4965" ry="19.4965"/>
<text text-anchor="middle" x="19.4983" y="-159.8111" font-family="Times,serif" font-size="14.00" fill="#000000">n9</text>
</g>
<!-- n10 -->
<g id="node2" class="node">
<title>n10</title>
<ellipse fill="none" stroke="#000000" cx="201.5672" cy="-133.3845" rx="24.0958" ry="24.0958"/>
<text text-anchor="middle" x="201.5672" y="-129.6845" font-family="Times,serif" font-size="14.00" fill="#000000">n10</text>
</g>
<!-- n9&#45;&#45;n10 -->
<g id="edge1" class="edge">
<title>n9&#45;&#45;n10</title>
<path fill="none" stroke="#000000" d="M38.9828,-160.287C72.5582,-154.7314 141.2122,-143.3713 177.6362,-137.3443"/>
</g>
<!-- n8 -->
<g id="node3" class="node">
<title>n8</title>
<ellipse fill="none" stroke="#000000" cx="41.9825" cy="-36.6118" rx="19.4965" ry="19.4965"/>
<text text-anchor="middle" x="41.9825" y="-32.9118" font-family="Times,serif" font-size="14.00" fill="#000000">n8</text>
</g>
<!-- n8&#45;&#45;n9 -->
<g id="edge3" class="edge">
<title>n8&#45;&#45;n9</title>
<path fill="none" stroke="#000000" d="M38.5676,-55.885C34.3416,-79.7364 27.1861,-120.1216 22.9453,-144.0564"/>
</g>
<!-- n8&#45;&#45;n10 -->
<g id="edge2" class="edge">
<title>n8&#45;&#45;n10</title>
<path fill="none" stroke="#000000" d="M58.7593,-46.7853C88.1284,-64.5948 148.7685,-101.3672 180.76,-120.7669"/>
</g>
<!-- n7 -->
<g id="node4" class="node">
<title>n7</title>
<ellipse fill="none" stroke="#000000" cx="80.1331" cy="-173.9986" rx="19.4965" ry="19.4965"/>
<text text-anchor="middle" x="80.1331" y="-170.2986" font-family="Times,serif" font-size="14.00" fill="#000000">n7</text>
</g>
<!-- n7&#45;&#45;n9 -->
<g id="edge5" class="edge">
<title>n7&#45;&#45;n9</title>
<path fill="none" stroke="#000000" d="M60.6141,-170.6226C53.6901,-169.425 45.9017,-168.0779 38.9807,-166.8808"/>
</g>
<!-- n7&#45;&#45;n10 -->
<g id="edge4" class="edge">
<title>n7&#45;&#45;n10</title>
<path fill="none" stroke="#000000" d="M98.841,-167.7417C120.2636,-160.5768 155.3712,-148.835 178.4775,-141.107"/>
</g>
<!-- n7&#45;&#45;n8 -->
<g id="edge6" class="edge">
<title>n7&#45;&#45;n8</title>
<path fill="none" stroke="#000000" d="M74.9084,-155.1836C67.6434,-129.0212 54.563,-81.9162 47.2665,-55.6404"/>
</g>
<!-- n6 -->
<g id="node5" class="node">
<title>n6</title>
<ellipse fill="none" stroke="#000000" cx="78.1162" cy="-238.536" rx="19.4965" ry="19.4965"/>
<text text-anchor="middle" x="78.1162" y="-234.836" font-family="Times,serif" font-size="14.00" fill="#000000">n6</text>
</g>
<!-- n6&#45;&#45;n9 -->
<g id="edge8" class="edge">
<title>n6&#45;&#45;n9</title>
<path fill="none" stroke="#000000" d="M65.9706,-222.9908C55.9103,-210.1146 41.6844,-191.907 31.6284,-179.0363"/>
</g>
<!-- n6&#45;&#45;n10 -->
<g id="edge7" class="edge">
<title>n6&#45;&#45;n10</title>
<path fill="none" stroke="#000000" d="M93.2538,-225.6423C115.9172,-206.3384 158.6134,-169.9712 183.0854,-149.1268"/>
</g>
<!-- n6&#45;&#45;n8 -->
<g id="edge9" class="edge">
<title>n6&#45;&#45;n8</title>
<path fill="none" stroke="#000000" d="M74.6516,-219.1746C67.745,-180.5787 52.3347,-94.4623 45.4367,-55.9145"/>
</g>
<!-- n6&#45;&#45;n7 -->
<g id="edge10" class="edge">
<title>n6&#45;&#45;n7</title>
<path fill="none" stroke="#000000" d="M78.7323,-218.822C78.9825,-210.8151 79.2709,-201.5864 79.5208,-193.5919"/>
</g>
<!-- n5 -->
<g id="node6" class="node">
<title>n5</title>
<ellipse fill="none" stroke="#000000" cx="140.7777" cy="-156.7245" rx="19.4965" ry="19.4965"/>
<text text-anchor="middle" x="140.7777" y="-153.0245" font-family="Times,serif" font-size="14.00" fill="#000000">n5</text>
</g>
<!-- n5&#45;&#45;n9 -->
<g id="edge12" class="edge">
<title>n5&#45;&#45;n9</title>
<path fill="none" stroke="#000000" d="M121.2921,-157.8149C98.7939,-159.0738 61.9857,-161.1336 39.3385,-162.4008"/>
</g>
<!-- n5&#45;&#45;n10 -->
<g id="edge11" class="edge">
<title>n5&#45;&#45;n10</title>
<path fill="none" stroke="#000000" d="M159.0166,-149.7218C165.3116,-147.3048 172.4395,-144.568 179.0367,-142.0351"/>
</g>
<!-- n5&#45;&#45;n8 -->
<g id="edge13" class="edge">
<title>n5&#45;&#45;n8</title>
<path fill="none" stroke="#000000" d="M128.2652,-141.5122C109.2615,-118.4079 73.3366,-74.7313 54.3934,-51.7006"/>
</g>
<!-- n5&#45;&#45;n7 -->
<g id="edge14" class="edge">
<title>n5&#45;&#45;n7</title>
<path fill="none" stroke="#000000" d="M121.9218,-162.0955C114.6896,-164.1555 106.4368,-166.5062 99.1862,-168.5715"/>
</g>
<!-- n5&#45;&#45;n6 -->
<g id="edge15" class="edge">
<title>n5&#45;&#45;n6</title>
<path fill="none" stroke="#000000" d="M128.6959,-172.4986C117.6,-186.9855 101.2451,-208.3387 90.1609,-222.8103"/>
</g>
<!-- n4 -->
<g id="node7" class="node">
<title>n4</title>
<ellipse fill="none" stroke="#000000" cx="26.8348" cy="-105.9742" rx="19.4965" ry="19.4965"/>
<text text-anchor="middle" x="26.8348" y="-102.2742" font-family="Times,serif" font-size="14.00" fill="#000000">n4</text>
</g>
<!-- n4&#45;&#45;n9 -->
<g id="edge17" class="edge">
<title>n4&#45;&#45;n9</title>
<path fill="none" stroke="#000000" d="M24.351,-125.4536C23.5861,-131.4522 22.7442,-138.0545 21.9795,-144.0518"/>
</g>
<!-- n4&#45;&#45;n10 -->
<g id="edge16" class="edge">
<title>n4&#45;&#45;n10</title>
<path fill="none" stroke="#000000" d="M46.2018,-109.0123C78.3673,-114.0581 142.7149,-124.1524 177.6578,-129.6339"/>
</g>
<!-- n4&#45;&#45;n8 -->
<g id="edge18" class="edge">
<title>n4&#45;&#45;n8</title>
<path fill="none" stroke="#000000" d="M31.0542,-86.6529C33.1552,-77.0324 35.6878,-65.4357 37.7856,-55.8295"/>
</g>
<!-- n4&#45;&#45;n7 -->
<g id="edge19" class="edge">
<title>n4&#45;&#45;n7</title>
<path fill="none" stroke="#000000" d="M38.929,-121.41C47.6516,-132.5426 59.3751,-147.5053 68.0867,-158.6239"/>
</g>
<!-- n4&#45;&#45;n6 -->
<g id="edge20" class="edge">
<title>n4&#45;&#45;n6</title>
<path fill="none" stroke="#000000" d="M33.9652,-124.4064C43.7627,-149.7327 61.2808,-195.0166 71.0463,-220.2604"/>
</g>
<!-- n4&#45;&#45;n5 -->
<g id="edge21" class="edge">
<title>n4&#45;&#45;n5</title>
<path fill="none" stroke="#000000" d="M44.8893,-114.0158C66.2249,-123.5186 101.5089,-139.2342 122.8076,-148.7206"/>
</g>
<!-- n3 -->
<g id="node8" class="node">
<title>n3</title>
<ellipse fill="none" stroke="#000000" cx="179.6027" cy="-215.6766" rx="19.4965" ry="19.4965"/>
<text text-anchor="middle" x="179.6027" y="-211.9766" font-family="Times,serif" font-size="14.00" fill="#000000">n3</text>
</g>
<!-- n3&#45;&#45;n9 -->
<g id="edge23" class="edge">
<title>n3&#45;&#45;n9</title>
<path fill="none" stroke="#000000" d="M160.9234,-209.5904C130.0729,-199.5387 68.8308,-179.5847 38.0587,-169.5584"/>
</g>
<!-- n3&#45;&#45;n10 -->
<g id="edge22" class="edge">
<title>n3&#45;&#45;n10</title>
<path fill="none" stroke="#000000" d="M184.697,-196.5903C187.8653,-184.7202 191.9617,-169.3726 195.3245,-156.7735"/>
</g>
<!-- n3&#45;&#45;n7 -->
<g id="edge24" class="edge">
<title>n3&#45;&#45;n7</title>
<path fill="none" stroke="#000000" d="M161.3585,-208.0322C143.4109,-200.5122 116.1692,-189.0978 98.2617,-181.5945"/>
</g>
<!-- n3&#45;&#45;n6 -->
<g id="edge25" class="edge">
<title>n3&#45;&#45;n6</title>
<path fill="none" stroke="#000000" d="M160.5139,-219.9763C142.4846,-224.0373 115.5784,-230.0978 97.4645,-234.1779"/>
</g>
<!-- n3&#45;&#45;n5 -->
<g id="edge26" class="edge">
<title>n3&#45;&#45;n5</title>
<path fill="none" stroke="#000000" d="M168.7878,-199.2551C163.4028,-191.0785 156.9117,-181.2224 151.5346,-173.0579"/>
</g>
<!-- n3&#45;&#45;n4 -->
<g id="edge27" class="edge">
<title>n3&#45;&#45;n4</title>
<path fill="none" stroke="#000000" d="M163.5426,-204.1439C134.1257,-183.0196 71.936,-138.3613 42.6797,-117.3524"/>
</g>
<!-- n2 -->
<g id="node9" class="node">
<title>n2</title>
<ellipse fill="none" stroke="#000000" cx="175.4235" cy="-81.8384" rx="19.4965" ry="19.4965"/>
<text text-anchor="middle" x="175.4235" y="-78.1384" font-family="Times,serif" font-size="14.00" fill="#000000">n2</text>
</g>
<!-- n2&#45;&#45;n9 -->
<g id="edge29" class="edge">
<title>n2&#45;&#45;n9</title>
<path fill="none" stroke="#000000" d="M158.141,-90.8909C128.169,-106.59 66.884,-138.6907 36.8582,-154.418"/>
</g>
<!-- n2&#45;&#45;n10 -->
<g id="edge28" class="edge">
<title>n2&#45;&#45;n10</title>
<path fill="none" stroke="#000000" d="M184.2745,-99.2896C186.2892,-103.2617 188.4537,-107.5293 190.5462,-111.6551"/>
</g>
<!-- n2&#45;&#45;n8 -->
<g id="edge30" class="edge">
<title>n2&#45;&#45;n8</title>
<path fill="none" stroke="#000000" d="M156.8691,-75.5498C131.518,-66.9577 86.3021,-51.6328 60.8095,-42.9927"/>
</g>
<!-- n2&#45;&#45;n7 -->
<g id="edge31" class="edge">
<title>n2&#45;&#45;n7</title>
<path fill="none" stroke="#000000" d="M161.363,-95.437C143.3468,-112.8614 112.2952,-142.893 94.2512,-160.3443"/>
</g>
<!-- n2&#45;&#45;n6 -->
<g id="edge32" class="edge">
<title>n2&#45;&#45;n6</title>
<path fill="none" stroke="#000000" d="M165.0099,-98.6078C146.281,-128.7677 107.1293,-191.8152 88.4549,-221.8872"/>
</g>
<!-- n2&#45;&#45;n5 -->
<g id="edge33" class="edge">
<title>n2&#45;&#45;n5</title>
<path fill="none" stroke="#000000" d="M167.2129,-99.5854C161.7301,-111.4363 154.5448,-126.9673 149.0494,-138.8454"/>
</g>
<!-- n2&#45;&#45;n4 -->
<g id="edge34" class="edge">
<title>n2&#45;&#45;n4</title>
<path fill="none" stroke="#000000" d="M155.9981,-84.9937C127.5212,-89.6194 74.7445,-98.1921 46.2649,-102.8181"/>
</g>
<!-- n2&#45;&#45;n3 -->
<g id="edge35" class="edge">
<title>n2&#45;&#45;n3</title>
<path fill="none" stroke="#000000" d="M176.0401,-101.5867C176.8303,-126.891 178.1922,-170.504 178.9835,-195.8473"/>
</g>
<!-- n1 -->
<g id="node10" class="node">
<title>n1</title>
<ellipse fill="none" stroke="#000000" cx="92.982" cy="-70.8356" rx="19.4965" ry="19.4965"/>
<text text-anchor="middle" x="92.982" y="-67.1356" font-family="Times,serif" font-size="14.00" fill="#000000">n1</text>
</g>
<!-- n1&#45;&#45;n9 -->
<g id="edge37" class="edge">
<title>n1&#45;&#45;n9</title>
<path fill="none" stroke="#000000" d="M80.8476,-86.1391C67.2323,-103.3104 45.2733,-131.0043 31.6506,-148.1849"/>
</g>
<!-- n1&#45;&#45;n10 -->
<g id="edge36" class="edge">
<title>n1&#45;&#45;n10</title>
<path fill="none" stroke="#000000" d="M109.9484,-80.6089C129.0357,-91.6038 160.0524,-109.4706 180.6309,-121.3245"/>
</g>
<!-- n1&#45;&#45;n7 -->
<g id="edge38" class="edge">
<title>n1&#45;&#45;n7</title>
<path fill="none" stroke="#000000" d="M90.5652,-90.2398C88.2825,-108.567 84.876,-135.9176 82.5827,-154.3307"/>
</g>
<!-- n1&#45;&#45;n6 -->
<g id="edge39" class="edge">
<title>n1&#45;&#45;n6</title>
<path fill="none" stroke="#000000" d="M91.2476,-90.4012C88.3831,-122.7153 82.6968,-186.863 79.8396,-219.095"/>
</g>
<!-- n1&#45;&#45;n5 -->
<g id="edge40" class="edge">
<title>n1&#45;&#45;n5</title>
<path fill="none" stroke="#000000" d="M102.6541,-88.2165C111.001,-103.2159 122.9882,-124.7569 131.283,-139.6626"/>
</g>
<!-- n1&#45;&#45;n4 -->
<g id="edge41" class="edge">
<title>n1&#45;&#45;n4</title>
<path fill="none" stroke="#000000" d="M75.6026,-80.0679C65.9565,-85.192 53.9919,-91.5479 44.3277,-96.6816"/>
</g>
<!-- n1&#45;&#45;n3 -->
<g id="edge42" class="edge">
<title>n1&#45;&#45;n3</title>
<path fill="none" stroke="#000000" d="M103.088,-87.7342C119.7789,-115.6435 152.9125,-171.0472 169.5611,-198.8856"/>
</g>
<!-- n1&#45;&#45;n2 -->
<g id="edge43" class="edge">
<title>n1&#45;&#45;n2</title>
<path fill="none" stroke="#000000" d="M112.5194,-73.4431C125.6613,-75.1971 142.9138,-77.4996 156.0262,-79.2496"/>
</g>
<!-- n0 -->
<g id="node11" class="node">
<title>n0</title>
<ellipse fill="none" stroke="#000000" cx="147.9254" cy="-19.4983" rx="19.4965" ry="19.4965"/>
<text text-anchor="middle" x="147.9254" y="-15.7983" font-family="Times,serif" font-size="14.00" fill="#000000">n0</text>
</g>
<!-- n0&#45;&#45;n9 -->
<g id="edge45" class="edge">
<title>n0&#45;&#45;n9</title>
<path fill="none" stroke="#000000" d="M134.9044,-34.0995C110.2894,-61.7017 57.1953,-121.2392 32.5538,-148.8712"/>
</g>
<!-- n0&#45;&#45;n10 -->
<g id="edge44" class="edge">
<title>n0&#45;&#45;n10</title>
<path fill="none" stroke="#000000" d="M156.307,-37.293C165.7362,-57.3121 181.0587,-89.8431 191.2245,-111.4261"/>
</g>
<!-- n0&#45;&#45;n8 -->
<g id="edge46" class="edge">
<title>n0&#45;&#45;n8</title>
<path fill="none" stroke="#000000" d="M128.4939,-22.6372C109.3784,-25.725 80.3637,-30.4119 61.2909,-33.4928"/>
</g>
<!-- n0&#45;&#45;n7 -->
<g id="edge47" class="edge">
<title>n0&#45;&#45;n7</title>
<path fill="none" stroke="#000000" d="M140.0161,-37.5238C126.9532,-67.2944 101.0217,-126.3929 87.992,-156.0879"/>
</g>
<!-- n0&#45;&#45;n5 -->
<g id="edge48" class="edge">
<title>n0&#45;&#45;n5</title>
<path fill="none" stroke="#000000" d="M146.9013,-39.1594C145.5425,-65.2461 143.1577,-111.0315 141.7999,-137.0998"/>
</g>
<!-- n0&#45;&#45;n4 -->
<g id="edge49" class="edge">
<title>n0&#45;&#45;n4</title>
<path fill="none" stroke="#000000" d="M131.8455,-30.9816C108.6853,-47.5213 66.1784,-77.8773 42.9812,-94.4434"/>
</g>
<!-- n0&#45;&#45;n3 -->
<g id="edge50" class="edge">
<title>n0&#45;&#45;n3</title>
<path fill="none" stroke="#000000" d="M151.0786,-39.0258C157.1505,-76.6292 170.4005,-158.6869 176.4623,-196.228"/>
</g>
<!-- n0&#45;&#45;n2 -->
<g id="edge51" class="edge">
<title>n0&#45;&#45;n2</title>
<path fill="none" stroke="#000000" d="M155.879,-37.5296C159.4955,-45.7285 163.7668,-55.4118 167.3925,-63.6316"/>
</g>
<!-- n0&#45;&#45;n1 -->
<g id="edge52" class="edge">
<title>n0&#45;&#45;n1</title>
<path fill="none" stroke="#000000" d="M133.4897,-32.9866C125.4775,-40.4729 115.5393,-49.7588 107.5121,-57.2592"/>
</g>
</g>
</svg>
